<?xml version="1.0" encoding="UTF-8"?>
<svg id="Layer_1" data-name="Layer 1" xmlns="http://www.w3.org/2000/svg" viewBox="0 0 291.13 73.8">
  <defs>
    <style>
      .cls-1 {
        fill: #fff;
      }

      .cls-2 {
        fill: #3653a4;
      }

      .cls-3 {
        fill: #2d2d2d;
      }

      .cls-4 {
        fill: #282827;
      }

      .cls-5 {
        fill: #7ad4ea;
      }
    </style>
  </defs>
  <g id="Layer_2" data-name="Layer 2">
    <g id="Layer_1-2" data-name="Layer 1-2">
      <g id="Layer_2-2" data-name="Layer 2-2">
        <g id="Layer_1-2-2" data-name="Layer 1-2-2">
          <path class="cls-2" d="M31.42,8.57c-10.01-.12-18.55,6.87-18.91,15.17-.37,8.7,7.57,16.51,18.68,16.73,9.98,.17,18.76-7.01,18.88-15.32,.12-9.33-7.89-16.46-18.64-16.57Z"/>
          <path class="cls-4" d="M57.73,20.5C55.59,10.09,45.43,2.48,32.73,1.74,20.87,1.04,9.48,7.72,5.71,17.51,3.59,23.16,0,31.97,0,31.97c0,14.15,21.42,34.74,31.33,41.83,9.23-7.14,30.33-26.36,30.33-41.95-1.71-3.64-3.02-7.45-3.92-11.36Zm-26.52,19.93c-11.12-.18-19.06-7.99-18.68-16.73,.33-8.26,8.9-15.29,18.91-15.17,10.73,.12,18.77,7.24,18.64,16.53-.12,8.39-8.92,15.53-18.88,15.36Z"/>
          <path class="cls-5" d="M24.07,34.99c1.83,2.13,4.52,3.33,7.33,3.26,2.56-.03,5-1.09,6.77-2.95,2.62-2.49,3.66-6.22,2.7-9.7l-6.58,.33c1.29,1.87,1.02,6.43-3.02,6.33-4.04-.1-3.42-4.9-2.77-6.15l-7.05-.13c-.44,3.24,.51,6.51,2.61,9.01Z"/>
          <path class="cls-3" d="M50.8,8.62C44.8,3.31,37.17,0,30.88,0c-4.53,0-12.2,3.46-18.22,8.23C4.54,14.67,.06,22.68,.06,30.88c0,13.77,15.57,28.95,29.75,28.95,7.76-.25,15.22-3.09,21.18-8.07,6.91-5.66,10.77-12.94,10.77-20.5,0-8.36-3.86-16.41-10.96-22.65ZM29.81,55.93c-12.22,0-25.85-13.47-25.85-25.05C3.96,14.6,24.63,3.86,30.88,3.86c10.29,0,27.02,11.28,27.02,27.41,0,13.77-15.54,24.67-28.09,24.67Z"/>
          <path class="cls-3" d="M43.34,25.88l-.39-1.85-12.19,.28h-.57l-10.55,.24-.51,1.49c-.51,1.53-.31,6.72,3.31,10.49,2.26,2.59,5.56,4.05,9.01,3.96h.09c3.13-.04,6.11-1.34,8.27-3.6,4.34-4.26,4.09-8.32,3.53-11.01Zm-21.66,.12l6.43,.09c-.47,1.57-.43,3.25,.12,4.8,.65,1.07,1.83,1.71,3.09,1.67h.23c1.38,.12,2.7-.59,3.37-1.8,.54-1.58,.48-3.3-.18-4.84l6.01-.32c.78,3.42-.26,7-2.75,9.47-1.68,1.77-3.99,2.8-6.43,2.86h0c-2.73,.06-5.34-1.11-7.12-3.18-2.81-2.73-2.92-7.72-2.77-8.75Z"/>
          <path class="cls-2" d="M30.88,3.86C24.63,3.86,3.96,14.6,3.96,30.88s22.07,34.06,27.27,37.79c4.86-3.86,26.61-21.75,26.61-37.31,.06-16.21-16.66-27.5-26.96-27.5Zm.46,39.03c-10.29,1.09-16.23-10.99-15.66-14.68l-8.85-2.47,21.17,.35,6.74-.14,20.2-1.15-8.02,2.83c.44,1.58,.15,12.94-15.44,15.3l-.14-.04Z"/>
          <path class="cls-1" d="M43.25,25.46v.27l.13,.58c.5,2.68,.51,6.56-3.65,10.63-2.16,2.26-5.14,3.56-8.27,3.6h0c-3.44,.08-6.74-1.37-9.01-3.96-2.45-2.61-3.71-6.12-3.46-9.69l.21-.91-12.38-.24s6.43,3.58,6.43,3.6c.47,3.55,1.99,6.89,4.36,9.57,2.2,2.57,6.69,6.97,12.16,6.97,3.53,0,11.9-1.79,16.11-7.89,1.88-2.8,2.99-6.03,3.23-9.39l5.76-3.86-11.62,.72Z"/>
          <path class="cls-1" d="M96.94,28.9c-1.47-1.02-3.12-1.76-4.85-2.2-1.88-.47-3.81-.7-5.75-.69-.68,0-1.36,.03-2.03,.1-1.4-.06-2.68,.8-3.15,2.12-.76,2.63-1.11,5.37-1.04,8.11,0,6.67,1.13,10.67,3.4,12,2.02,1.05,4.29,1.55,6.56,1.43,2.07,.04,4.11-.47,5.92-1.49,1.7-.97,3.1-2.38,4.05-4.08,1-1.8,1.5-3.83,1.47-5.89,.03-1.93-.41-3.85-1.29-5.57-.78-1.52-1.9-2.83-3.28-3.83Zm-2.02,12.96c-1.06,1.57-2.86,2.46-4.75,2.34-.53,0-1.05-.04-1.57-.13-.43-2.08-.63-4.2-.6-6.32-.01-2.05,.12-4.1,.4-6.12,1.86,.09,3.66,.74,5.15,1.87,1.5,1.14,2.36,2.93,2.3,4.81,.05,1.25-.27,2.49-.93,3.55Z"/>
          <path class="cls-1" d="M117.35,31.34c-.99-.37-2.05-.53-3.11-.46-.54-.01-1.06,.18-1.47,.54-.45,.45-.7,1.06-.69,1.7v1.02c0,1.14-.06,2.28-.19,3.41-.22,1.69-.59,2.57-1.15,2.57-.26,0-.41-.26-.46-.77v-2.03c.03-.61,.1-1.21,.19-1.81,.07-.46,.11-.92,.13-1.39,.08-1.18-.59-2.28-1.67-2.77-.85-.37-1.77-.54-2.69-.51-1.19-.12-2.25,.74-2.37,1.93v.14c-.17,1.06-.25,2.13-.26,3.2,0,1.27,.11,2.53,.31,3.78,.22,1.43,.84,2.77,1.79,3.86,1.04,1.22,2.59,1.88,4.19,1.79,.69-.02,1.35-.3,1.85-.78,.01,.71-.03,1.43-.12,2.14-.04,.46-.19,.9-.44,1.29-.18,.32-.53,.52-.9,.5-.22,0-.44-.08-.62-.22-.2-.13-.36-.32-.46-.54-.26-.6-.76-1.07-1.38-1.29-.27-.11-.56-.17-.85-.17-.36,0-.71,.08-1.03,.23-.6,.26-1.06,.75-1.29,1.36-.1,.28-.15,.57-.15,.86,0,.35,.07,.7,.22,1.02,.58,1.35,1.52,2.51,2.73,3.35,1.2,.84,2.63,1.29,4.09,1.29,2.11,.02,4.06-1.08,5.15-2.88,1.72-2.57,2.57-6.82,2.57-12.74,.13-2.08-.09-4.16-.66-6.16-.22-.63-.68-1.14-1.27-1.44Z"/>
          <path class="cls-1" d="M132.41,38.91c-.6-.35-1.18-.66-1.72-.93-.51-.25-1-.52-1.48-.82-.34-.15-.57-.48-.6-.85,0-.26,.13-.51,.35-.66,.24-.19,.53-.28,.84-.27,.51-.04,.98,.28,1.12,.77,.31,1.01,1.25,1.7,2.3,1.7,.27,0,.53-.04,.78-.13,.62-.19,1.14-.63,1.44-1.21,.18-.34,.27-.71,.27-1.09,0-.27-.05-.54-.14-.8-.49-1.54-1.49-2.86-2.83-3.76-1.25-.84-2.72-1.29-4.22-1.29-1.7-.06-3.38,.42-4.8,1.38-1.42,.96-2.24,2.59-2.17,4.3-.02,1.56,.63,3.06,1.8,4.1,1.03,.88,2.18,1.61,3.41,2.16,.6,.3,1.11,.58,1.51,.82,.33,.15,.56,.47,.59,.84,0,.32-.17,.61-.44,.78-.3,.22-.66,.33-1.03,.32-.4,.06-.79-.17-.93-.55-.21-.64-.68-1.16-1.29-1.44-.58-.29-1.24-.34-1.85-.14-.64,.21-1.17,.67-1.45,1.29-.19,.34-.29,.72-.28,1.11,0,.26,.04,.52,.13,.76,.42,1.35,1.34,2.49,2.57,3.19,1.24,.7,2.64,1.07,4.07,1.06,1.81,.04,3.6-.44,5.15-1.39,1.44-.83,2.32-2.37,2.3-4.03-.03-2.25-1.35-4.28-3.38-5.22Z"/>
          <path class="cls-1" d="M147.97,44.88h-.21c-1.29,0-1.99-2.05-1.99-6.15,0-.62,0-1.26,0-1.93,.4,0,.81-.02,1.21-.08,.36-.04,.7-.18,.98-.41,.31-.31,.53-.69,.63-1.12,.07-.26,.11-.53,.12-.8-.01-.6-.25-1.18-.67-1.61-.5-.53-1.21-.81-1.94-.76,.12-1.45,.17-2.37,.17-2.74,0-.48-.06-.95-.17-1.42-.19-.57-.62-1.04-1.17-1.29-1.06-.42-2.2-.6-3.35-.53-.58-.01-1.16,.17-1.62,.53-.49,.45-.75,1.09-.71,1.75v3.68c-.7-.03-1.39,.21-1.92,.67-.42,.41-.64,.99-.6,1.58-.03,.76,.3,1.48,.89,1.96,.48,.39,1.08,.59,1.7,.57,0,2.55,.25,5.1,.77,7.6,.27,1.6,1.1,3.04,2.34,4.08,1.43,.94,3.12,1.39,4.83,1.29,.66,.02,1.31-.21,1.81-.63,.54-.48,.83-1.17,.78-1.89,0-.57-.16-1.13-.49-1.6-.3-.48-.83-.76-1.39-.76Z"/>
          <path class="cls-1" d="M158.12,29.44c-2.43-.09-4.74,1.07-6.12,3.08-1.35,1.97-2.04,4.31-1.97,6.69v1.02c.05,.92,.23,1.84,.53,2.71,.33,1.13,.84,2.19,1.52,3.15,.66,.92,1.51,1.69,2.5,2.25,1.06,.57,2.25,.86,3.46,.84,1.13,.02,2.25-.27,3.23-.85,1.93-1.24,3.31-3.17,3.86-5.39,.39-1.32,.59-2.7,.58-4.08,.07-2.24-.53-4.45-1.72-6.34-1.26-2-3.49-3.17-5.85-3.08Zm2.43,11.58c-.12,.75-.35,1.48-.68,2.16-.31,.62-.67,.91-1.08,.91-.42-.01-.79-.26-.95-.64-.52-1.05-.76-2.21-.69-3.38,0-.87,.11-1.73,.32-2.57,.14-.6,.39-1.16,.75-1.66,.29-.42,.77-.67,1.29-.66,.44,0,.77,.31,1,.94,.26,.83,.37,1.7,.33,2.57-.02,.78-.12,1.56-.28,2.33Z"/>
          <path class="cls-1" d="M180.47,32.59c-1.55-.54-3.17-.81-4.81-.8h-.59c-.23-.47-.53-.9-.89-1.29-.35-.39-.79-.69-1.29-.87-.73-.24-1.5-.35-2.26-.32-.55-.01-1.09,.18-1.51,.54-.46,.46-.72,1.09-.71,1.74-.17,2.65-.26,5.31-.26,7.96,0,3.1,.1,6.23,.32,9.34,.02,.6,.16,1.19,.4,1.74,.26,.54,.72,.96,1.29,1.17,.99,.33,2.03,.48,3.08,.42,.61,.02,1.2-.21,1.65-.63,.43-.41,.66-.98,.64-1.57v-.19c-.1-1.63-.19-3.23-.24-4.77,.53,.08,1.07,.12,1.61,.12,.73-.01,1.46-.08,2.19-.21,.96-.16,1.89-.49,2.74-.97,.95-.5,1.76-1.23,2.35-2.12,.63-.98,.95-2.13,.91-3.29,.02-.96-.18-1.9-.59-2.77-.87-1.56-2.31-2.72-4.03-3.23Zm-.98,7.04c-.8,.4-1.68,.58-2.57,.53-.59,0-1.17-.05-1.75-.17v-3.26c.97-.02,1.93,.06,2.88,.23,1.29,.26,1.98,.78,1.98,1.57,.03,.44-.17,.86-.54,1.09Z"/>
          <path class="cls-1" d="M188.19,29.13c1.5,.93,3.4,.93,4.9,0,.95-.51,1.3-1.69,.79-2.63-.18-.34-.46-.61-.79-.79-1.5-.94-3.4-.94-4.9,0-.95,.51-1.3,1.69-.79,2.63,.18,.34,.46,.61,.79,.79Z"/>
          <path class="cls-1" d="M194.21,33.88c0-.5-.07-.99-.21-1.47-.21-.56-.64-1-1.2-1.21-1.04-.41-2.15-.58-3.27-.51-.59,0-1.16,.19-1.62,.55-.49,.46-.76,1.11-.73,1.78-.1,2.26-.15,4.64-.15,7.14,0,4.45,.21,7.14,.59,8.08,.25,.58,.71,1.04,1.29,1.29,.98,.35,2.02,.5,3.06,.45,.63,.02,1.25-.19,1.74-.59,.42-.43,.64-1.02,.59-1.62v-.36c-.15-2.05-.22-4.07-.22-6.09,0-1.78,.04-4.25,.13-7.44Z"/>
          <path class="cls-1" d="M211.85,35.71c-.33-1.16-.84-2.26-1.53-3.26-.66-.96-1.54-1.74-2.57-2.29-1.23-.6-2.58-.89-3.95-.85-1.23-.02-2.45,.28-3.53,.87-1.07,.61-1.96,1.5-2.57,2.57-.23,.36-.35,.77-.36,1.2,.02,.3,.08,.6,.17,.89,.2,.48,.59,.87,1.08,1.06,.35,.19,.74,.28,1.13,.28,.34,0,.68-.06,1-.15,.52-.2,.95-.58,1.21-1.07,.15-.26,.36-.49,.62-.66,.27-.15,.58-.22,.89-.21,.35,0,.71,.3,1.08,.9,.37,.62,.6,1.31,.67,2.02-3.61,0-6.24,.75-7.87,2.24-.95,.9-1.45,2.16-1.38,3.46-.04,1.3,.46,2.55,1.39,3.46,1.46,1.38,3.42,2.1,5.43,2.01,1.21,0,2.41-.22,3.55-.63,.25,.54,.66,.98,1.17,1.29,.89,.41,1.87,.58,2.84,.5,.58,.01,1.16-.17,1.62-.53,.5-.45,.77-1.1,.73-1.78,.05-1.09,.08-2.38,.08-3.86,0-1.24-.07-2.47-.19-3.71-.12-1.28-.35-2.54-.71-3.77Zm-8.78,7.89c-.52,.01-1.04-.07-1.53-.24-.38-.1-.64-.44-.64-.82,.02-.53,.39-.99,.91-1.11,.57-.22,1.18-.34,1.79-.35,.72-.03,1.43,.1,2.1,.36l.08,1.56c-.83,.43-1.76,.64-2.7,.6h0Z"/>
          <path class="cls-1" d="M237.56,43.67c-.36-.18-.76-.27-1.16-.27-.34,0-.67,.06-.99,.18-1.94,.66-3.96,1.03-6.01,1.09-.1-1.13-.17-2.29-.17-3.47,0-1.4,.12-3.15,.32-5.26s.5-4.28,.87-6.51c.01-.2,.01-.39,0-.59-.01-.58-.16-1.15-.42-1.66-.36-.62-.88-1.12-1.52-1.44-.84-.44-1.78-.65-2.73-.62-1.45-.21-2.81,.79-3.02,2.24h0c-.8,4.37-1.23,8.79-1.29,13.23-.02,2.14,.22,4.26,.71,6.34,.57,2.31,2.62,3.46,6.16,3.46h.26c1.73-.01,3.46-.21,5.15-.58,1.2-.24,2.38-.56,3.53-.97,1.09-.39,1.83-1.41,1.87-2.57,0-.34-.07-.68-.19-1-.22-.7-.71-1.27-1.36-1.6Z"/>
          <path class="cls-1" d="M255.73,35.71c-.34-1.16-.86-2.26-1.54-3.26-.66-.96-1.54-1.75-2.57-2.29-1.23-.6-2.58-.89-3.95-.85-1.23-.02-2.45,.28-3.53,.87-1.07,.61-1.96,1.5-2.57,2.57-.22,.36-.34,.77-.35,1.2,.02,.3,.07,.6,.17,.89,.2,.48,.59,.87,1.08,1.06,.35,.19,.74,.28,1.13,.28,.35-.02,.69-.09,1.02-.19,.52-.2,.95-.58,1.21-1.07,.15-.26,.35-.49,.6-.66,.27-.15,.58-.22,.89-.21,.35,0,.71,.3,1.08,.9,.38,.61,.61,1.3,.68,2.02-3.62,0-6.24,.75-7.87,2.24-.95,.89-1.46,2.16-1.39,3.46-.05,1.3,.46,2.56,1.4,3.46,1.46,1.38,3.41,2.1,5.42,2.01,1.21-.03,2.4-.27,3.53-.69,.26,.54,.67,.98,1.18,1.29,.88,.41,1.86,.58,2.83,.5,.59,.02,1.17-.17,1.63-.53,.5-.45,.77-1.1,.73-1.78v-3.86c0-1.24-.07-2.47-.19-3.71-.09-1.24-.3-2.47-.62-3.67Zm-8.79,7.89c-.52,.01-1.03-.07-1.52-.24-.38-.1-.64-.44-.64-.82,.02-.53,.39-.99,.91-1.11,.57-.22,1.18-.34,1.79-.35,.72-.02,1.43,.1,2.1,.36l.08,1.56c-.84,.43-1.77,.64-2.71,.6Z"/>
          <path class="cls-1" d="M270.55,34.5c-.84-.22-1.71-.33-2.57-.32-.59,0-1.17,.05-1.75,.14l.27-4.64c0-.55-.14-1.09-.4-1.57-.34-.57-.85-1.02-1.45-1.29-.88-.38-1.83-.56-2.79-.51-.58-.02-1.14,.17-1.6,.53-.48,.43-.76,1.05-.76,1.7-.33,4.04-.5,7.54-.5,10.49,0,4.67,.32,7.48,.95,8.45,.94,1.29,2.49,1.97,4.07,1.8,.89,.02,1.71-.48,2.1-1.29h.85c1.39-.02,2.77-.26,4.08-.72,1.39-.43,2.63-1.26,3.56-2.38,.88-1.09,1.33-2.46,1.29-3.86,.09-1.67-.52-3.31-1.69-4.52-1.02-.98-2.28-1.68-3.65-2.01Zm-.42,7.96c-.97,.5-2.05,.74-3.14,.68h-.84v-3.65c.69-.23,1.42-.34,2.15-.32,1.66,0,2.57,.55,2.7,1.63v.12c.02,.64-.32,1.23-.87,1.54Z"/>
          <path class="cls-1" d="M287.85,38.91c-.6-.35-1.18-.66-1.72-.93-.53-.24-1.04-.52-1.53-.82-.34-.15-.57-.48-.6-.85,0-.26,.13-.51,.35-.66,.24-.19,.53-.28,.84-.27,.51-.04,.98,.28,1.12,.77,.18,.62,.62,1.14,1.2,1.43,.34,.18,.72,.27,1.11,.27,.27,0,.53-.04,.78-.13,.62-.19,1.14-.63,1.44-1.21,.18-.34,.27-.71,.27-1.09,0-.27-.05-.54-.14-.8-.49-1.54-1.49-2.86-2.83-3.76-1.25-.84-2.72-1.29-4.22-1.29-1.7-.06-3.38,.42-4.8,1.38-1.42,.96-2.24,2.59-2.17,4.3-.02,1.56,.63,3.06,1.8,4.1,1.03,.88,2.18,1.61,3.41,2.16,.6,.3,1.11,.58,1.51,.82,.33,.15,.56,.47,.59,.84,0,.32-.17,.61-.44,.78-.3,.22-.66,.33-1.03,.32-.41,.08-.83-.14-.98-.54-.21-.64-.68-1.16-1.29-1.44-.58-.29-1.24-.34-1.85-.14-.64,.21-1.17,.67-1.45,1.29-.19,.34-.29,.72-.28,1.11,0,.26,.04,.52,.13,.76,.42,1.35,1.34,2.49,2.57,3.19,1.24,.7,2.64,1.07,4.07,1.06,1.81,.04,3.6-.44,5.15-1.39,1.44-.83,2.32-2.37,2.3-4.03,0-2.23-1.28-4.26-3.28-5.24Z"/>
        </g>
      </g>
    </g>
  </g>
</svg>