<?xml version="1.0" encoding="UTF-8"?>
<svg id="Layer_1" data-name="Layer 1" xmlns="http://www.w3.org/2000/svg" viewBox="0 0 435.08 261.41">
  <defs>
    <style>
      .cls-1 {
        fill: none;
        stroke: #fff;
        stroke-miterlimit: 10;
        stroke-width: 8.71px;
      }
    </style>
  </defs>
  <path class="cls-1" d="M100.94,102.86V4.36h71.98V25.95h-46.85v16.29h39.53v21.09h-39.53v17.93h46.85v21.59H100.94Z"/>
  <path class="cls-1" d="M199.69,102.86V26.46h-22.1V4.48h69.96V26.46h-22.1V102.86h-25.76Z"/>
  <path class="cls-1" d="M311.07,102.86V62.7h-29.55v40.16h-25.76V4.36h25.76V41.11h29.55V4.36h25.76V102.86h-25.76Z"/>
  <path class="cls-1" d="M65.77,188.73c-2.4-7.07-7.7-14.4-17.81-14.4-8.59,0-13.01,3.79-13.01,7.7s4.55,6.57,14.65,8.97c24.75,5.81,40.79,14.9,40.79,33.09,0,22.6-18.31,32.83-40.41,32.83-25.76,0-39.78-11.37-44.7-30.06l24.88-7.58c2.4,8.21,9.98,14.78,20.58,14.78,8.08,0,12-2.65,12-6.57,0-6.57-5.18-8.59-13.26-10.48-28.67-6.69-41.55-14.78-41.55-32.33s13.51-31.44,41.42-31.44c19.7,0,37,13.76,39.02,29.3l-22.6,6.19Z"/>
  <path class="cls-1" d="M100.37,254.4v-98.5h71.98v21.59h-46.85v16.29h39.53v21.09h-39.53v17.93h46.85v21.59H100.37Z"/>
  <path class="cls-1" d="M222.87,256.92c-26.14,0-43.57-21.09-43.57-51.78s17.43-51.78,43.57-51.78,43.57,21.59,43.57,51.78c0,15.28-4.42,28.29-12,37.38-7.58,9.09-18.44,14.4-31.57,14.4Zm17.05-51.78c0-18.31-6.95-29.8-17.05-29.8s-17.05,11.49-17.05,29.8c0,20.33,6.57,29.8,17.05,29.8s17.05-9.47,17.05-29.8Z"/>
  <path class="cls-1" d="M327.93,155.77h25.64v63.9c0,26.14-12.75,37.38-38.52,37.38s-38.64-11.24-38.64-37.38v-63.9h25.64v64.03c0,11.49,3.03,16.8,13.01,16.8s12.88-5.3,12.88-16.8v-64.03Z"/>
  <path class="cls-1" d="M366.07,254.4v-98.5h25.76v76.53h38.9v21.97h-64.66Z"/>
</svg>