<svg xmlns="http://www.w3.org/2000/svg" viewBox="0 0 580 168"><defs><style>.cls-1{fill:#fff;}</style></defs><title>Asset 2</title><g id="Layer_2" data-name="Layer 2"><g id="Layer_1-2" data-name="Layer 1"><rect width="580" height="168"/><path class="cls-1" d="M201.08,67.44A11.65,11.65,0,0,0,192,71.57,13.62,13.62,0,0,0,188.32,81V94l47,.12A2.73,2.73,0,0,1,238,96.89h0a2.73,2.73,0,0,1-2.74,2.73l-46.95-.11v15.12a2.86,2.86,0,0,1-2.86,2.86h0a2.86,2.86,0,0,1-2.86-2.85l-.11-34.2a17.94,17.94,0,0,1,5.22-13.24A18.35,18.35,0,0,1,201.08,62h34.56a2.73,2.73,0,0,1,2.73,2.73h0a2.73,2.73,0,0,1-2.73,2.73Z"/><path class="cls-1" d="M314.65,117.37a2.86,2.86,0,0,1-2.85-2.86V84.81H258.46v29.7a2.86,2.86,0,0,1-2.85,2.86h0a2.86,2.86,0,0,1-2.86-2.86V64.7a2.85,2.85,0,0,1,2.86-2.85h0a2.85,2.85,0,0,1,2.85,2.85V79.34h53.33V64.7a2.85,2.85,0,0,1,2.85-2.85h0a2.85,2.85,0,0,1,2.85,2.85v49.81a2.86,2.86,0,0,1-2.85,2.86Z"/><path class="cls-1" d="M348.32,117.49A17.88,17.88,0,0,1,329.74,99V80.43A17.88,17.88,0,0,1,348.32,62h34.56a2.73,2.73,0,0,1,2.73,2.73h0a2.73,2.73,0,0,1-2.73,2.73H348.32a11.65,11.65,0,0,0-9.11,4.13A13.62,13.62,0,0,0,335.57,81V88l47,.11a2.73,2.73,0,0,1,2.73,2.73h0a2.73,2.73,0,0,1-2.74,2.73l-46.95-.12v5a14.06,14.06,0,0,0,3.64,9.6,11.8,11.8,0,0,0,9.11,4h34.56a2.73,2.73,0,0,1,2.73,2.73h0a2.73,2.73,0,0,1-2.73,2.73Z"/><path class="cls-1" d="M461.48,114.51a2.86,2.86,0,0,1-2.85,2.86h0a2.86,2.86,0,0,1-2.85-2.86V80.92a11.83,11.83,0,0,0-3.89-9,13,13,0,0,0-9.23-3.64H415.56a13,13,0,0,0-9.23,3.64,11.84,11.84,0,0,0-3.89,9v33.59a2.86,2.86,0,0,1-2.85,2.86h0a2.86,2.86,0,0,1-2.85-2.86V80.92a17.19,17.19,0,0,1,5.35-13,19,19,0,0,1,13.48-5.1h27.09A17.92,17.92,0,0,1,456,68.29a18.32,18.32,0,0,1,5.47,13.48Z"/><path class="cls-1" d="M479.42,117.37a3.34,3.34,0,0,1-3.34-3.34V65.19a3.34,3.34,0,0,1,3.34-3.34h0a3.34,3.34,0,0,1,3.34,3.34V114a3.34,3.34,0,0,1-3.34,3.34Z"/><path class="cls-1" d="M558,114.52a2.93,2.93,0,0,1-2.93,2.85h-.15a3.08,3.08,0,0,1-2-.74L526.41,94l-26.47,22.59a3.08,3.08,0,0,1-2,.74h-.15a2.93,2.93,0,0,1-2.93-2.85h0a2.93,2.93,0,0,1,1-2.32l26-22.05L495.9,68a2.93,2.93,0,0,1-1-2.32h0a2.93,2.93,0,0,1,2.93-2.85h.14a3.08,3.08,0,0,1,2,.74l26.47,22.59,26.47-22.59a3.08,3.08,0,0,1,2-.74H555A2.93,2.93,0,0,1,558,65.67h0a2.93,2.93,0,0,1-1,2.32l-26,22.17,26,22.05a2.93,2.93,0,0,1,1,2.32Z"/><path class="cls-1" d="M88.62,31.36,136.2,60.18,88.34,89.13a2,2,0,0,0-1,1.86s0,.08,0,.12l.06,15.45L42.71,75.71a2,2,0,0,0-.68-.3V58.08l16-9.2L87.82,67.34a2,2,0,0,0,2.13-3.43L62,46.6Zm-1-4.06a2,2,0,0,1,1.82-.15,1.94,1.94,0,0,1,.33.17l51.2,31a2.25,2.25,0,0,1,0,3.7L91.41,92l.12,28,48.31-29.17a2,2,0,0,1,2.09,3.45L91.55,124.72,91.64,147l48.51-28.7a2,2,0,0,1,2.05,3.47L90.92,152.06a2.27,2.27,0,0,1-3.31-1.83l-.16-38.76L42,80.14v39.93a2,2,0,1,1-4,0V56.86a2,2,0,0,1,1.43-1.93Z"/><path class="cls-1" d="M136.2,60.18l.48.8,1.31-.79-1.31-.79ZM88.62,31.36l.48-.79-.47-.28-.47.27Zm-.28,57.77.48.79h0Zm-1,1.86.93.05v-.11Zm0,.12h0Zm.06,15.45-.53.76,1.46,1v-1.78ZM42.71,75.71l.53-.76h0Zm-.68-.3h-.93v.73l.71.17Zm0-17.33-.46-.8-.47.27v.54Zm16-9.2.49-.79-.47-.29-.48.28ZM87.82,67.34l.49-.79h0Zm2.78-.65-.79-.49h0Zm-.65-2.78.49-.79h0ZM62,46.6l-.46-.81-1.35.77,1.32.82Zm26-19.51-.27-.89h0Zm-.48.21.46.8h0Zm1.82-.15-.35.86h0Zm.33.17-.5.78h0Zm51.2,31,.48-.79h0Zm1,1.85-.93-.06v.11Zm-1,1.84-.48-.79h0ZM91.41,92l-.48-.79-.45.27V92Zm.12,28H90.6v1.64l1.4-.85Zm48.31-29.17.48.79h0Zm2.77.68-.8.48h0Zm-.68,2.77.48.79h0ZM91.55,124.72l-.48-.79-.45.27v.53ZM91.64,147h-.93v1.62l1.39-.83Zm48.51-28.7.47.8h0Zm2.05,3.47.47.8h0ZM90.92,152.06l-.47-.8h0Zm-1.87.1.39-.85-.06,0-.06,0Zm-1.44-1.93h0Zm-.16-38.76h.93V111l-.4-.28ZM42,80.14l.53-.76-1.46-1v1.77ZM39.43,54.93l.27.89.1,0,.09-.05Zm97.26,4.46L89.1,30.57l-1,1.59L135.72,61ZM88.82,89.92,136.68,61l-1-1.59L87.86,88.33Zm-.52,1a1.09,1.09,0,0,1,.52-1l-1-1.59A3,3,0,0,0,86.45,91Zm0,.18s0,0,0-.07l-1.85-.1c0,.06,0,.12,0,.17Zm.07,15.45L88.3,91.1H86.44l.06,15.45ZM42.18,76.47l44.72,30.85L88,105.79,43.24,74.94Zm-.36-.16a1.08,1.08,0,0,1,.36.16l1.05-1.53a2.93,2.93,0,0,0-1-.44Zm-.71-18.23V75.41H43V58.08Zm16.51-10-16,9.2.92,1.61,16-9.2Zm30.7,18.47L58.56,48.09l-1,1.58L87.33,68.12Zm1.5-.35a1.09,1.09,0,0,1-1.5.35l-1,1.58a2.94,2.94,0,0,0,4.06-.95Zm-.35-1.5a1.09,1.09,0,0,1,.35,1.5l1.58,1a2.94,2.94,0,0,0-1-4.06ZM61.56,47.39,89.45,64.7l1-1.58L62.54,45.81Zm26.6-16.84L61.59,45.79l.92,1.61L89.08,32.16ZM87.8,26.2a3,3,0,0,0-.7.31l1,1.58a1.12,1.12,0,0,1,.26-.11Zm2,.1a2.94,2.94,0,0,0-2-.1L88.33,28a1.08,1.08,0,0,1,.73,0Zm.48.25a2.89,2.89,0,0,0-.48-.25L89.06,28l.18.09Zm51.17,31-51.2-31-1,1.59,51.2,31Zm1.41,2.71a3,3,0,0,0-1.41-2.71l-1,1.59a1.09,1.09,0,0,1,.52,1Zm-1.42,2.58a3,3,0,0,0,1.42-2.69l-1.85.11a1.09,1.09,0,0,1-.52,1Zm-49.53,30,49.53-30-1-1.59-49.53,30ZM92.45,120l-.12-28H90.48l.12,28Zm46.9-30L91,119.23l1,1.59,48.31-29.17Zm4,1a3,3,0,0,0-4-1l1,1.59a1.09,1.09,0,0,1,1.49.37Zm-1,4a2.94,2.94,0,0,0,1-4l-1.59,1a1.09,1.09,0,0,1-.37,1.49ZM92,125.52,142.4,95.1l-1-1.59L91.07,123.93Zm.54,21.43-.09-22.23H90.62L90.71,147Zm47.11-29.5-48.51,28.7.95,1.6L140.62,119Zm4,1a3,3,0,0,0-4-1l.95,1.6a1.09,1.09,0,0,1,1.49.38Zm-1,4a3,3,0,0,0,1-4l-1.6.95a1.09,1.09,0,0,1-.38,1.49ZM91.4,152.86l51.28-30.34-.95-1.6L90.45,151.26Zm-2.72.15a3,3,0,0,0,2.72-.15l-.95-1.6a1.09,1.09,0,0,1-1,.05Zm-2-2.77a3,3,0,0,0,2.11,2.81l.53-1.78a1.09,1.09,0,0,1-.78-1Zm-.16-38.76.16,38.76h1.86l-.16-38.76Zm-45-30.57,45.42,31.33L88,110.71,42.56,79.38ZM43,89.15v-9H41.11v9Zm0,30.92V89.15H41.11v30.92ZM40,123A3,3,0,0,0,43,120.07H41.11A1.09,1.09,0,0,1,40,121.16Zm-2.94-2.94A2.94,2.94,0,0,0,40,123v-1.86a1.09,1.09,0,0,1-1.09-1.09Zm0-30.92v30.92h1.86V89.15Zm0-32.3v32.3h1.86V56.86ZM39.15,54a3,3,0,0,0-2.08,2.82h1.86a1.09,1.09,0,0,1,.77-1Zm48-27.54L39,54.12l.92,1.61L88.05,28.1Z"/><path class="cls-1" d="M88.62,31.36,136.2,60.18,88.34,89.13a2,2,0,0,0-1,1.86s0,.08,0,.12l.06,15.45L42.71,75.71a2,2,0,0,0-.68-.3V58.08l16-9.2L87.82,67.33a2,2,0,0,0,2.13-3.43L62,46.6Zm-1-4.06a2,2,0,0,1,1.82-.15,1.94,1.94,0,0,1,.33.17l51.2,31a2.25,2.25,0,0,1,0,3.7L91.41,92l.12,28,48.31-29.17a2,2,0,1,1,2.09,3.45L91.55,124.72,91.64,147l48.51-28.7a2,2,0,0,1,2.05,3.47L90.92,152.06a2.27,2.27,0,0,1-3.31-1.83l-.16-38.76L42,80.14v39.93a2,2,0,1,1-4,0V56.86a2,2,0,0,1,1.43-1.93Z"/><path class="cls-1" d="M136.2,60.18l.48.8,1.31-.79-1.31-.79ZM88.62,31.36l.48-.79-.47-.28-.47.27Zm-.28,57.77.48.79h0Zm-1,1.86.93.05v-.11Zm0,.12h0Zm.06,15.45-.53.76,1.46,1v-1.78ZM42.71,75.71l.53-.76h0Zm-.68-.3h-.93v.73l.71.17Zm0-17.33-.46-.8-.47.27v.54Zm16-9.2.49-.79-.47-.29-.48.27ZM87.82,67.33l.49-.79h0Zm2.78-.65-.79-.49h0Zm-.65-2.78.49-.79h0ZM62,46.6l-.46-.81-1.35.77,1.32.82Zm26-19.51-.27-.89h0Zm-.48.21.46.8h0Zm1.82-.15-.35.86h0Zm.33.17-.5.78h0Zm51.2,31,.48-.79h0Zm1,1.85-.93-.06v.11Zm-1,1.84-.48-.79h0ZM91.41,92l-.48-.79-.45.27V92Zm.12,28H90.6v1.64l1.4-.85Zm48.31-29.17.48.79h0Zm2.77.68-.8.48h0Zm-.68,2.77.48.8h0ZM91.55,124.72l-.48-.79-.45.27v.53ZM91.64,147h-.93v1.62l1.39-.83Zm48.51-28.7.47.8h0Zm2.05,3.47.47.8h0ZM90.92,152.06l-.47-.8h0Zm-1.87.1.39-.85-.06,0-.06,0Zm-1.44-1.93h0Zm-.16-38.76h.93V111l-.4-.28ZM42,80.14l.53-.76-1.46-1v1.77ZM39.43,54.93l.27.89.1,0,.09-.05Zm97.26,4.46L89.1,30.56l-1,1.59L135.72,61ZM88.82,89.92,136.68,61l-1-1.59L87.86,88.33Zm-.52,1a1.09,1.09,0,0,1,.52-1l-1-1.59A2.94,2.94,0,0,0,86.45,91Zm0,.18s0,0,0-.07l-1.85-.1c0,.06,0,.12,0,.17Zm.07,15.45L88.3,91.1H86.44l.06,15.45ZM42.18,76.47l44.72,30.85L88,105.79,43.24,74.94Zm-.36-.16a1.08,1.08,0,0,1,.36.16l1.05-1.53a3,3,0,0,0-1-.44Zm-.71-18.23V75.41H43V58.08Zm16.51-10-16,9.2.92,1.61,16-9.2Zm30.7,18.47L58.56,48.09l-1,1.58L87.33,68.12Zm1.5-.35a1.09,1.09,0,0,1-1.5.35l-1,1.58a2.94,2.94,0,0,0,4.06-.95Zm-.35-1.5a1.09,1.09,0,0,1,.35,1.5l1.58,1a2.94,2.94,0,0,0-1-4.06ZM61.56,47.39,89.45,64.7l1-1.58L62.54,45.81Zm26.6-16.84L61.59,45.79l.92,1.61L89.08,32.16ZM87.8,26.2a3,3,0,0,0-.7.31l1,1.58a1.17,1.17,0,0,1,.26-.12Zm2,.1a2.94,2.94,0,0,0-2-.1L88.33,28a1.09,1.09,0,0,1,.73,0Zm.48.25a2.89,2.89,0,0,0-.48-.25L89.06,28l.18.09Zm51.17,31-51.2-31-1,1.59,51.2,31Zm1.41,2.71a3,3,0,0,0-1.41-2.71l-1,1.59a1.09,1.09,0,0,1,.52,1Zm-1.42,2.58a2.94,2.94,0,0,0,1.42-2.69l-1.85.11a1.09,1.09,0,0,1-.52,1Zm-49.53,30,49.53-30-1-1.59-49.53,30ZM92.45,120l-.12-28H90.48l.12,28Zm46.9-30L91,119.23l1,1.59,48.31-29.17Zm4,1a2.94,2.94,0,0,0-4-1l1,1.59a1.09,1.09,0,0,1,1.49.37Zm-1,4a2.94,2.94,0,0,0,1-4l-1.59,1a1.09,1.09,0,0,1-.37,1.49ZM92,125.52,142.4,95.1l-1-1.59L91.07,123.93Zm.54,21.43-.09-22.23H90.62L90.71,147Zm47.11-29.5-48.51,28.7.95,1.6L140.62,119Zm4,1a3,3,0,0,0-4-1l.95,1.6a1.09,1.09,0,0,1,1.49.38Zm-1,4a3,3,0,0,0,1-4l-1.6.95a1.09,1.09,0,0,1-.38,1.49ZM91.4,152.86l51.28-30.34-.95-1.6L90.45,151.26Zm-2.72.15a2.94,2.94,0,0,0,2.72-.15l-.95-1.6a1.09,1.09,0,0,1-1,.05Zm-2-2.77A2.94,2.94,0,0,0,88.79,153l.53-1.78a1.09,1.09,0,0,1-.78-1Zm-.16-38.76.16,38.76h1.86l-.16-38.76Zm-45-30.57,45.42,31.33L88,110.71,42.56,79.38ZM43,89.15v-9H41.11v9Zm0,30.92V89.15H41.11v30.92ZM40,123A3,3,0,0,0,43,120.07H41.11A1.09,1.09,0,0,1,40,121.16Zm-2.94-2.94A2.94,2.94,0,0,0,40,123v-1.86a1.09,1.09,0,0,1-1.09-1.09Zm0-30.92v30.92h1.86V89.15Zm0-32.3v32.3h1.86V56.86ZM39.15,54a3,3,0,0,0-2.08,2.82h1.86a1.09,1.09,0,0,1,.77-1Zm48-27.54L39,54.12l.92,1.61L88.05,28.1Z"/></g></g></svg>