<?xml version="1.0" encoding="utf-8"?>
<!-- Generator: Adobe Illustrator 21.0.0, SVG Export Plug-In . SVG Version: 6.00 Build 0)  -->
<svg version="1.1" id="Layer_1" xmlns="http://www.w3.org/2000/svg" xmlns:xlink="http://www.w3.org/1999/xlink" x="0px" y="0px"
	 viewBox="0 0 739.7 739.7" style="enable-background:new 0 0 739.7 739.7;" xml:space="preserve">
<style type="text/css">
	.st0{fill:none;stroke:#B7B7B7;stroke-miterlimit:10;}
	.st1{fill:none;stroke:#B7B7B7;stroke-width:2;stroke-miterlimit:10;}
</style>
<title>Asset 3</title>
<g id="Layer_2">
	<g id="Layer_1-2">
		<path class="st0" d="M728.5,279.5l-7.9,2l-8.5,2.1l-7.9,2l1.8,7.2c2,6.4,2.8,13,3.8,19.6l-8.7,1.5c-0.9-5-1.2-10.2-2.6-15.1
			l-4.1-16l-2.5-9.8c-1.8-7-4.8-13.6-7.1-20.4l8.3-3.1c2.2,6.3,4.7,12.5,6.8,18.8l1.8,7.2l7.8-2.2l8.5-2.4l7.8-2.2l-2-7.7
			c-3.1-9.3-6.7-18.5-10-27.7l-1.9-5.1c-0.6-1.7-1.3-3.4-2.1-5L697,196.6c-1.1-2.4-2.4-4.8-3.8-7l-7.1,4l-7.7,4.3l-7.1,4
			c1.4,2.1,2.6,4.2,3.6,6.5l8.7,18.1l-8,3.7l-8.1-16.8c-1.7-4-4.3-7.6-6.5-11.5l-6.9-11.4c-3-5.3-6.4-10.4-10.2-15.3l7.2-5.1
			c4.1,5.3,7.8,10.8,11.1,16.7l3.8,6.4l7-4.2l7.5-4.5l7-4.2l-4.1-6.8c-4.8-8.6-10.7-16.4-16.7-24.3l-3.3-4.4l-3.3-4.4
			c-5.5-8.1-12.9-14.8-19.3-22.3l-5.4-5.9l-5.8,5.7l-6.3,6.1l-5.8,5.7l5,5.5L636,150l-6.8,5.6l-11.1-12.2L607.8,132l-8.3-7.5
			l-15.2-13.8l5.6-6.7l14.8,13.5l5.5,5l5.7-5.8l6.1-6.3l5.7-5.8l-5.9-5.4c-7.5-6.4-14.1-13.7-22.3-19.3l-4.4-3.3l-4.4-3.3
			c-7.8-6-15.7-11.8-24.3-16.7l-6.8-4.1l-4.2,7l-4.5,7.6l-4.2,7l6.4,3.8c5.8,3.3,11.4,7,16.7,11.1l-5.1,7.2
			c-8.1-6.7-17.6-11.3-26.4-17l0,0l0,0l-0.2-0.1l0,0c-8.7-5.9-18.9-9.8-28.3-14.6l3.7-8l18,8.6c2.3,1,4.4,2.2,6.5,3.6l4-7.1l4.3-7.7
			l4-7.1c-2.2-1.4-4.6-2.7-7-3.8l-26.6-12.8c-1.6-0.8-3.3-1.6-5-2.1l-5.2-1.9c-9.2-3.3-18.4-6.9-27.7-10l-7.7-2l-2.2,7.8l-2.4,8.5
			l-2.2,7.8l7.2,1.8c6.3,2.1,12.6,4.5,18.9,6.8l-3.1,8.3l-14.4-5.3c-5.1-1.9-10.5-2.9-15.8-4.3H457l-9.8-2.5c-6.9-2-14-3.4-21.2-4.2
			l1.5-8.7c6.6,1,13.2,1.8,19.6,3.8l7.2,1.8l2-7.9l2.1-8.5l2-7.9l-7.7-2c-9.4-2.9-19.3-3.6-29-5.3l-5.4-0.8l-5.4-0.8
			c-9.7-1.5-19.6-1.3-29.4-2l-8-0.4l-0.1,8.1l-0.1,8.8l-0.1,8.1l7.4,0.4l20,1l-0.8,8.8L383,34.3l-13.1-0.7h-0.1l-13.4,0.7L338,35.2
			l-0.8-8.8l20-1l7.4-0.4l-0.1-8.1l-0.1-8.8V0l-8,0.4c-9.8,0.7-19.7,0.5-29.4,2l-5.4,0.8L316.2,4c-9.7,1.7-19.5,2.4-29,5.3l-7.7,2
			l2,7.9l2.1,8.5l2,7.9l7.2-1.8c6.4-1.9,13-2.8,19.7-3.8l1.5,8.7c-5.4,1-10.9,1.3-16.2,2.9L283,45.4h-0.1L272,48.2
			c-6.5,1.9-12.9,4.6-19.3,6.9l-3.1-8.3c6.3-2.2,12.5-4.7,18.8-6.8l7.2-1.8l-2.2-7.8l-2.4-8.5l-2.2-7.9l-7.7,2
			c-9.3,3.1-18.5,6.7-27.7,10l-5.1,1.9c-1.7,0.6-3.4,1.3-5,2.1l-26.6,12.8c-2.4,1.1-4.8,2.4-7,3.8l4,7.1l4.3,7.7l4,7.1
			c2.1-1.4,4.2-2.6,6.5-3.6l18.1-8.7l3.7,8c-9.3,4.8-19.5,8.7-28.2,14.6l0,0c-8.9,5.8-18.5,10.4-26.7,17.1l-5.1-7.2
			c5.3-4.1,10.8-7.8,16.7-11.1l6.4-3.8l-4.2-7l-4.5-7.5l-4.2-7l-6.8,4.1c-8.6,4.8-16.4,10.7-24.3,16.7l-4.4,3.3l-4.4,3.3
			c-8.1,5.5-14.8,12.9-22.3,19.3l-5.9,5.4l5.7,5.8l6.1,6.3l5.7,5.8l5.5-5L150,104l5.6,6.8l-11.3,10.3l-12.1,11l-0.1,0.1l-6.8,7.5
			l-14.6,16L104,150l13.5-14.8l5-5.5l-5.9-5.7l-6.3-6.1l-5.8-5.7l-5.4,5.9c-6.4,7.4-13.7,14.1-19.3,22.3l-3.3,4.4l-3.3,4.4
			c-6,7.8-11.8,15.7-16.7,24.3l-4.1,6.8l7,4.2L67,189l7,4.2l3.9-6.4c3.3-5.8,7-11.4,11.1-16.7l7.2,5.1c-3.8,4.9-7.3,10-10.3,15.5
			L79,201.9v0.1c-2.3,3.8-4.8,7.5-6.6,11.6l-8,16.6l-8-3.7l8.6-18c1-2.3,2.2-4.4,3.6-6.5l-7.1-4l-7.7-4.3l-7.1-4
			c-1.5,2.2-2.7,4.6-3.8,7l-12.8,26.6c-0.8,1.6-1.6,3.3-2.1,5l-1.9,5.2c-3.3,9.2-6.9,18.4-10,27.7l-2,7.7l7.9,2.2l8.5,2.4l7.8,2.2
			l1.8-7.2c2.1-6.3,4.5-12.6,6.8-18.9l8.3,3.1l-5.6,15.5c-1.6,4.8-2.6,9.8-4,14.7v0.1l-2.8,10.9c-1.8,6.6-3.1,13.3-3.9,20.1
			l-8.7-1.5c1-6.6,1.8-13.2,3.8-19.6l1.8-7.2l-7.9-2l-8.5-2.1l-7.9-2l-2,7.7c-2.9,9.4-3.6,19.3-5.3,29l-0.8,5.4l-1,5.3
			c-1.5,9.7-1.3,19.6-2,29.4l-0.4,8l8.1,0.1l8.8,0.1l8.1,0.1l0.4-7.4l1-20l8.8,0.8l-1.6,31.7h8.2l1.6-31c0.1-2.4,0.4-4.7,0.8-7
			l-8.1-0.9l-8.7-1l-8.1-0.9c-0.5,2.5-0.8,5-0.9,7.5l-1,20.5l-8.8-0.3c0.7-9.6,0.5-19.2,2-28.7l0.8-5.3l0.8-5.3
			c1.7-9.5,2.3-19.1,5.2-28.3l8.6,2c-2,6.6-2.9,13.4-3.9,20.1l-1.1,7.5l8.1,1.2l8.7,1.3l8.1,1.2l1.1-7c0.8-6.6,2-13.2,3.8-19.6
			l2.7-10.6V285c1.3-4.8,2.3-9.7,3.9-14.4l5.5-15.1l2.4-6.6l-7.6-3l-8.2-3.3l-7.6-3l-2.6,7.1c-2.3,6.4-4.8,12.8-6.9,19.3l-8.4-2.6
			c3-9.1,6.5-18.1,9.8-27.1l1.8-5c0.6-1.7,1.3-3.3,2.1-4.9l12.5-26l7.8,4.1l-9,18.6l-3.3,6.9l7.5,3.2l8.1,3.5l7.5,3.2l3.1-6.4
			l7.8-16.2c1.7-4,4.2-7.6,6.4-11.3l0,0l6.6-11c3-5.3,6.3-10.3,10.1-15.1l4.2-5.6l-6.5-4.9l-7.1-5.3l-6.5-4.9l-4.6,6.1
			c-4.2,5.4-8,11.1-11.3,17.1l-7.5-4.7c4.7-8.4,10.5-16.1,16.3-23.7l3.2-4.3l3.2-4.3c5.4-8,12.6-14.5,18.8-21.8l6.4,6l-13.8,15.2
			l-4.6,6.1l6.4,5.1l6.9,5.5l6.4,5.1l4.3-5.6l14.2-15.6l6.6-7.3l0.1-0.1l11.9-10.7l11.1-10.1l5.6-4.3l-5.1-6.4l-5.4-6.9l-5.1-6.4
			l-6.1,4.6l-15.2,13.8l-6-6.4c7.3-6.2,13.8-13.4,21.8-18.8l4.2-3.2l4.3-3.2c7.6-5.8,15.3-11.6,23.7-16.3l4.7,7.5
			c-6,3.4-11.7,7.2-17.1,11.3l-6.1,4.6l4.9,6.5l5.3,7.1l4.9,6.5l5.6-4.2c7.9-6.6,17.2-11,25.7-16.6l0,0c8.6-5.8,18.7-9.7,27.8-14.4
			l6.4-3.1l-3.2-7.5l-3.5-8.1l-3.2-7.5l-6.9,3.3L204.4,58l-4.1-7.8l26-12.5c1.6-0.8,3.2-1.5,4.9-2.1l5-1.8c9-3.3,18-6.7,27.1-9.8
			l2.6,8.4c-6.5,2.1-12.9,4.6-19.3,6.9l-7.1,2.6l3,7.6l3.3,8.2l3,7.6l6.6-2.4c6.3-2.2,12.5-4.8,18.9-6.7l10.6-2.7h0.1l14.4-3.7
			c5.1-1.6,10.5-1.9,15.8-2.8l7-1.1l-1.2-8.1l-1.3-8.7l-1.2-8.1l-7.5,1.2c-6.8,1-13.5,1.9-20.1,3.9l-2-8.6
			c9.2-2.8,18.9-3.5,28.3-5.1l5.3-0.8l5.3-0.8c9.5-1.5,19.1-1.3,28.7-2l0.3,8.8l-20.5,1c-2.5,0.1-5.1,0.4-7.5,0.9l0.9,8.1l1,8.7
			l0.9,8.1c2.3-0.4,4.6-0.7,7-0.8l17.9-0.9l13-0.7h0.1l12.8,0.7l18.2,0.9c2.4,0.1,4.7,0.4,7,0.8l0.9-8.1l1-8.7l0.9-8.1
			c-2.5-0.5-5-0.8-7.5-0.9l-20.5-1l0.4-8.8c9.6,0.7,19.2,0.5,28.7,2l5.3,0.8l5.3,0.8c9.5,1.7,19.1,2.3,28.3,5.2l-2,8.6
			c-6.6-2-13.4-2.9-20.1-3.9l-7.5-1.1l-1.2,8.1l-1.3,8.7l-1.2,8.1l7,1.1c7,0.8,13.9,2.2,20.7,4.1l9.5,2.5h0.1
			c5.1,1.5,10.4,2.3,15.4,4.2l14,5.2l6.6,2.4l3-7.6l3.3-8.2l3-7.6l-7-2.6c-6.4-2.3-12.8-4.8-19.3-6.9l2.6-8.4
			c9.1,3,18.1,6.5,27.1,9.8l5,1.8c1.7,0.6,3.3,1.3,4.9,2.1l26,12.5l-4.1,7.8l-18.5-8.9l-6.9-3.3l-3.2,7.5l-3.5,8.1l-3.2,7.5l6.4,3.1
			c9.2,4.7,19.2,8.5,27.8,14.4l0,0c8.6,5.6,17.9,10,25.8,16.6l5.7,4.2l4.9-6.5l5.3-7.1l4.9-6.5l-6.1-4.6c-5.4-4.2-11.1-8-17.1-11.3
			l4.7-7.5c8.4,4.7,16.1,10.5,23.7,16.3L590,83l4.3,3.2c8,5.4,14.5,12.6,21.8,18.8l-6,6.4l-15.2-13.8l-6.1-4.6l-5.1,6.4l-5.5,6.9
			l-5.1,6.4l5.6,4.3l14.8,13.5l8.2,7.4l10,11.1l10.8,11.9l4.3,5.6l6.4-5.1l6.9-5.5l6.4-5.1l-4.6-6.1l-13.8-15.2l6.4-6
			c6.2,7.3,13.4,13.8,18.8,21.8l3.2,4.3l3.3,4.3c5.8,7.6,11.6,15.3,16.3,23.7l-7.5,4.7c-3.4-6-7.2-11.7-11.3-17.1l-4.5-6.1l-6.5,4.9
			l-7.1,5.3l-6.5,4.9l4.2,5.6c3.7,4.7,7.1,9.7,10,14.9l6.7,11.2c2.2,3.7,4.7,7.2,6.3,11.1l7.9,16.4l3.1,6.4l7.5-3.2l8.1-3.5l7.5-3.2
			l-3.3-6.9l-8.9-18.5l7.8-4.1l12.5,26c0.8,1.6,1.5,3.2,2.1,4.9l1.8,5c3.3,9,6.7,18,9.8,27.1l-8.4,2.6c-2.1-6.5-4.6-12.9-6.9-19.3
			l-2.6-7.1l-7.6,3l-8.2,3.3l-7.6,3l2.4,6.6c2.3,6.7,5.2,13.1,7,19.9l2.5,9.6l4,15.5c1.4,4.8,1.7,9.8,2.6,14.7l1.1,7l8.1-1.2
			l8.7-1.3l8.1-1.2l-1.2-7.5c-1-6.8-1.9-13.5-3.9-20.1l8.6-2c2.8,9.2,3.5,18.9,5.2,28.3l0.8,5.3l0.8,5.3c1.5,9.5,1.3,19.2,2,28.7
			l-8.8,0.3l-1-20.5c-0.1-2.5-0.4-5.1-0.9-7.5l-8.1,0.9l-8.7,1l-8.1,0.9c0.4,2.3,0.7,4.6,0.8,7l0.1,1.4c0.1,1.2,0.1,2.4,0.2,3.7
			c0.1,1.7,0.2,3.4,0.3,5.2c0.1,2,0.2,3.9,0.3,5.9s0.2,3.9,0.3,5.8c0.1,1.7,0.2,3.3,0.3,5c0,1.1,0.1,2.3,0.2,3.4
			c0,1.9,0,3.8-0.2,5.6l-0.3,5.4c-0.1,2.1-0.2,4.1-0.3,6.2s-0.2,4.1-0.3,6c-0.1,1.7-0.2,3.3-0.3,5c-0.1,1-0.1,2-0.2,3
			c0,0.2,0,0.3,0,0.5c-0.1,2.4-0.4,4.7-0.8,7l8.1,0.9l8.7,1l8.1,0.9c0.5-2.5,0.8-5,0.9-7.5l1-20.5l8.8,0.3c-0.7,9.6-0.5,19.2-2,28.7
			l-0.8,5.3l-0.8,5.3c-1.7,9.5-2.3,19.1-5.2,28.3l-8.6-2c2-6.6,2.9-13.4,3.9-20.1l1.2-7.5l-8.1-1.2l-8.7-1.3l-8.1-1.2l-1.1,7
			c-0.8,6.6-2,13.2-3.8,19.6l-2.8,10.7c-1.3,4.8-2.3,9.7-3.8,14.4l-5.6,15.2l-2.4,6.6l7.6,3l8.2,3.3l7.6,3l2.6-7.1
			c2.3-6.4,4.8-12.8,6.9-19.3l8.4,2.6c-3,9.1-6.5,18.1-9.8,27.1l-1.8,5c-0.6,1.7-1.3,3.3-2.1,4.9l-12.5,26L682,535l8.9-18.5l3.3-6.9
			l-7.5-3.2l-8.1-3.5l-7.5-3.2l-3,6.4l-7.8,16.2c-1.7,4-4.2,7.6-6.5,11.4l-6.7,10.9c-3,5.3-6.4,10.3-10.1,15.1l-4.2,5.7l6.5,4.9
			l7,5.3l6.5,4.9l4.5-6.1c4.2-5.4,8-11.1,11.3-17.1l7.5,4.7c-4.7,8.4-10.5,16.1-16.3,23.7l-3.2,4.3l-3.2,4.3
			c-5.4,8-12.6,14.5-18.8,21.8l-6.4-6l13.8-15.2l4.6-6.1l-6.4-5.1l-6.9-5.5l-6.4-5l-4.3,5.6l-14.2,15.6l-6.7,7.4L590,612.6
			l-11.1,10.1l-5.7,4.3l5.1,6.4l5.5,6.9l5.1,6.4l6.1-4.6l15.2-13.8l6,6.4c-7.3,6.2-13.8,13.4-21.8,18.8l-4.3,3.2l-4.3,3.2
			c-7.6,5.8-15.3,11.6-23.7,16.3l-4.7-7.5c6-3.4,11.7-7.2,17.1-11.3l6.1-4.5l-4.9-6.5l-5.3-7.1l-4.9-6.5l-5.7,4.2
			c-7.3,6.1-17.7,11.7-26.1,16.8c-8.6,5.8-18.3,9.5-27.5,14.2l-6.4,3.1l3.2,7.5l3.5,8.1l3.2,7.5l6.9-3.3l18.5-8.9l4.1,7.8l-26,12.5
			c-1.6,0.8-3.2,1.5-4.9,2.1l-5,1.8c-9,3.3-18,6.7-27.1,9.8l-2.6-8.4c6.5-2.1,12.9-4.6,19.3-6.9l7.1-2.6l-3-7.6l-3.3-8.2l-3-7.6
			l-6.7,2.4c-6.3,2.2-12.5,4.8-18.9,6.7l-10.7,2.7l-14.4,3.7c-5.1,1.6-10.5,1.9-15.8,2.8l-7,1.1l1.2,8.1l1.3,8.7l1.2,8.1l7.5-1.2
			c6.8-1,13.5-1.9,20.1-3.9l2,8.6c-9.2,2.8-18.9,3.5-28.3,5.2l-5.3,0.8l-5.3,0.8c-9.5,1.5-19.2,1.3-28.7,2l-0.3-8.8l20.5-1
			c2.5-0.1,5.1-0.4,7.5-0.9l-0.9-8.1l-1-8.7l-0.9-8.1c-2.3,0.4-4.6,0.7-7,0.8l-17.9,0.9l-13.1,0.7l-12.8-0.7l-18.2-0.9
			c-2.4-0.1-4.7-0.4-7-0.8l-0.9,8.1l-1,8.7l-0.9,8.1c2.5,0.5,5,0.8,7.5,0.9l20.5,1l-0.3,8.8c-9.6-0.7-19.2-0.5-28.7-2l-5.3-0.8
			l-5.3-0.8c-9.5-1.7-19.1-2.3-28.3-5.2l2-8.6c6.6,2,13.4,2.9,20.1,3.9l7.5,1.2l1.2-8.1l1.3-8.7l1.2-8.1l-7-1.1
			c-7-0.8-13.9-2.2-20.7-4.1l-9.7-2.5c-5.1-1.5-10.4-2.3-15.4-4.2l-14-5.2l-6.6-2.4l-3,7.6l-3.3,8.2l-3,7.6l7.1,2.6
			c6.4,2.3,12.8,4.8,19.3,6.9l-2.6,8.4c-9.1-3-18.1-6.5-27.1-9.8l-5-1.8c-1.7-0.6-3.3-1.3-4.9-2.1l-26-12.5l4.1-7.8l18.5,8.9
			l6.9,3.3l3.2-7.5l3.5-8.1l3.2-7.5l-6.5-3c-9.2-4.7-18.9-8.3-27.5-14.2c-8.6-5.6-18.1-10.1-26.1-16.8l-5.6-4.2l-4.9,6.5l-5.3,7.1
			l-4.9,6.5l6.1,4.5c5.4,4.2,11.1,8,17.1,11.3l-4.7,7.5c-8.4-4.7-16.1-10.5-23.7-16.3l-4.3-3.2l-4.3-3.2c-8-5.4-14.5-12.6-21.8-18.8
			l6-6.4l15.2,13.8l6.1,4.6l5.1-6.4l5.5-6.9l5.1-6.4l-5.6-4.3L146,609.2l-8.2-7.4l-10-11L117,578.9l-4.3-5.6l-6.4,5.1l-6.9,5.5
			L93,589l4.6,6.1l13.8,15.2l-6.4,6c-6.2-7.3-13.4-13.8-18.8-21.8L83,590l-3.2-4.3c-5.8-7.6-11.6-15.3-16.3-23.7l7.5-4.7
			c3.4,6,7.2,11.7,11.3,17.1l4.6,6.1l6.5-4.9l7.1-5.3l6.5-4.9l-4.2-5.7c-3.7-4.7-7.1-9.7-10-14.9L86,533.6
			c-2.2-3.7-4.7-7.2-6.3-11.1l-7.9-16.4l-3.1-6.4l-7.5,3.2l-8.1,3.5l-7.5,3.2l3.3,6.8l8.9,18.5L50,539l-12.5-26
			c-0.8-1.6-1.5-3.2-2.1-4.9l-1.8-5c-3.3-9-6.7-18-9.8-27.1l8.4-2.6c2.1,6.5,4.6,12.9,6.9,19.3l2.6,7.1l7.6-3l8.2-3.3l7.6-3
			l-2.4-6.6c-2.3-6.7-5.2-13.1-7-19.9l-2.5-9.6l-4-15.5c-1.4-4.8-1.7-9.8-2.6-14.7l-1.1-7l-8.1,1.2l-8.7,1.3l-8.1,1.2l1.2,7.5
			c1,6.8,1.9,13.5,3.9,20.1l-8.6,2c-2.8-9.2-3.5-18.9-5.1-28.3l-0.8-5.3l-0.8-5.3c-1.5-9.5-1.3-19.2-2-28.8l8.8-0.3l1,20.5
			c0.1,2.5,0.4,5.1,0.9,7.5l8.1-0.9l8.7-1l8.1-0.9c-0.4-2.3-0.7-4.6-0.8-7l-1.6-31h-8.1l1.6,31.7l-8.8,0.8l-1-20l-0.4-7.4l-8.1,0.1
			L8,375l-8,0.4l0.4,8c0.7,9.8,0.5,19.7,2,29.4l0.8,5.4l0.8,5.4c1.7,9.7,2.4,19.5,5.3,29l2,7.7l7.9-2l8.5-2.1l7.9-2l-1.8-7.2
			c-1.9-6.4-2.8-13-3.8-19.6l8.7-1.5c0.9,5,1.2,10.2,2.6,15.1l4.1,16l2.5,9.8c1.8,7,4.8,13.6,7.1,20.4l-8.3,3.1
			c-2.2-6.3-4.7-12.5-6.8-18.9l-1.8-7.2l-7.8,2.2l-8.5,2.4l-7.9,2.2l2,7.7c3.1,9.3,6.7,18.5,10,27.7l1.9,5.1c0.6,1.7,1.3,3.4,2.1,5
			l12.8,26.6c1.1,2.4,2.4,4.8,3.8,7l7.1-4l7.7-4.3l7.1-4c-1.4-2.1-2.6-4.2-3.6-6.5l-8.7-18.1l8-3.7l8.1,16.8c1.7,4,4.3,7.6,6.5,11.5
			l6.9,11.4c3,5.3,6.4,10.4,10.2,15.3l-7.2,5.1c-4.1-5.3-7.8-10.8-11.1-16.6l-3.8-6.4l-7,4.2l-7.5,4.5l-7,4.2l4.1,6.8
			c4.8,8.6,10.7,16.5,16.7,24.3l3.3,4.4l3.3,4.4c5.5,8.1,12.9,14.8,19.3,22.3l5.4,5.9l5.8-5.7l6.3-6.1l5.8-5.7l-5-5.5L104,589.7
			l6.8-5.6l11.1,12.2l10.3,11.4l8.3,7.5l15.1,13.8l-5.6,6.8l-14.8-13.5l-5.5-5l-5.7,5.9l-6.1,6.3l-5.7,5.8l5.9,5.4
			c7.4,6.4,14.1,13.7,22.3,19.3l4.4,3.3l4.4,3.3c7.8,6,15.7,11.8,24.3,16.7l6.8,4.1l4.2-7l4.5-7.5l4.2-7l-6.4-3.9
			c-5.8-3.3-11.4-7-16.7-11.1l5.1-7.2c8.2,6.8,18.5,11.8,27.4,17.6c8.6,5.7,18.4,9.4,27.6,14.2l-3.7,8l-18.1-8.7
			c-2.3-1-4.4-2.2-6.5-3.6l-4,7.1l-4.3,7.7l-4,7.1c2.2,1.4,4.6,2.7,7,3.8l26.6,12.8c1.6,0.8,3.3,1.6,5,2.1l5.1,1.9
			c9.2,3.3,18.4,6.9,27.7,10l7.7,2l2.2-7.8l2.4-8.5l2.2-7.8l-7.2-1.8c-6.3-2.1-12.6-4.5-18.9-6.8l3.1-8.3l14.4,5.3
			c5.1,1.9,10.5,2.9,15.9,4.4l9.8,2.5c7,2,14.1,3.4,21.3,4.2l-1.5,8.7c-6.6-1-13.3-1.8-19.7-3.8l-7.2-1.8l-2,7.9l-2.1,8.5l-2,7.9
			l7.7,2c9.4,2.9,19.3,3.6,29,5.3l5.4,0.8l5.4,0.8c9.7,1.5,19.6,1.3,29.4,2l8,0.4l0.1-8.2l0.1-8.8l0.1-8.2l-7.4-0.4l-20-1l0.8-8.8
			l18.6,0.9l13.2,0.7l13.4-0.7l18.4-0.9l0.8,8.8l-20,1l-7.4,0.4l0.1,8.2l0.1,8.8l0.1,8.2l8-0.4c9.8-0.7,19.7-0.5,29.4-2l5.4-0.8
			l5.4-0.8c9.7-1.7,19.5-2.4,29-5.3l7.7-2l-2-7.9l-2.3-8.5l-2-7.9l-7.2,1.8c-6.4,2-13,2.8-19.6,3.8l-1.5-8.7
			c5.4-1,10.9-1.3,16.2-2.9l14.9-3.8l10.9-2.8c6.5-1.9,12.9-4.6,19.3-6.9l3.1,8.3c-6.3,2.2-12.5,4.7-18.9,6.8l-7.2,1.8l2.2,7.8
			l2.4,8.5l2.2,7.8l7.7-2c9.3-3.1,18.5-6.7,27.7-10l5.1-1.9c1.7-0.6,3.4-1.3,5-2.1l26.5-12.8c2.4-1.1,4.8-2.4,7-3.8l-4-7.1l-4.3-7.7
			l-4-7.1c-2.1,1.4-4.2,2.6-6.5,3.6l-18,8.7l-3.7-8c9.4-4.8,19.4-8.6,28.3-14.6c8.9-5.8,18.5-10.4,26.7-17.2l5.1,7.2
			c-5.2,4.1-10.8,7.8-16.6,11.1l-6.3,3.9l4.2,7l4.5,7.5l4.2,7l6.8-4.1c8.6-4.8,16.5-10.7,24.3-16.7l4.4-3.3l4.4-3.3
			c8.1-5.5,14.8-12.9,22.3-19.3l5.9-5.4l-5.7-5.8l-6.1-6.3l-5.7-5.9l-5.5,5l-14.8,13.5L584,629l11.3-10.3l12.2-11.1l6.8-7.5l14.6-16
			l6.8,5.6l-13.5,14.8l-5,5.5l5.8,5.7l6.3,6.1l5.8,5.7l5.4-5.9c6.4-7.5,13.7-14.1,19.3-22.3l3.3-4.4l3.3-4.4
			c6-7.8,11.8-15.7,16.7-24.3l4.1-6.8l-7-4.2l-7.5-4.5l-7-4.2l-3.8,6.4c-3.3,5.8-7,11.4-11.1,16.7l-7.2-5.1
			c3.8-4.9,7.3-10.1,10.4-15.5l6.9-11.3c2.3-3.8,4.8-7.5,6.6-11.6l8-16.6l8,3.7l-8.7,18c-1,2.3-2.2,4.4-3.6,6.5l7.1,4l7.7,4.3l7.1,4
			c1.4-2.2,2.7-4.6,3.8-7l12.8-26.5c0.8-1.6,1.6-3.3,2.1-5l1.9-5.1c3.3-9.2,6.9-18.4,10-27.7l2-7.7l-7.8-2.2l-8.5-2.4l-7.8-2.2
			l-1.8,7.2c-2.1,6.3-4.5,12.6-6.8,18.9l-8.3-3.1l5.7-15.5c1.6-4.8,2.6-9.8,4-14.8l2.8-10.9c1.8-6.6,3.2-13.3,3.9-20.1l8.7,1.5
			c-1,6.6-1.8,13.2-3.8,19.6l-1.8,7.2l7.9,2l8.5,2.1l7.9,2l2-7.7c2.9-9.4,3.6-19.3,5.3-29l0.8-5.4l0.8-5.4c1.5-9.7,1.3-19.6,2-29.4
			l0.4-8l-8.2-0.1l-8.8-0.1l-8.2-0.1l-0.4,7.4l-1,20l-8.8-0.8c0-0.5,0-1,0.1-1.4c0.1-1.3,0.1-2.5,0.2-3.8c0.1-1.8,0.2-3.5,0.3-5.3
			c0.1-2,0.2-4,0.3-6s0.2-4,0.3-5.9c0.1-1.7,0.2-3.3,0.3-5c0.1-1.4,0.2-2.8,0.2-4.2s-0.1-2.8-0.2-4.2l-0.2-4.9
			c-0.1-1.9-0.2-3.8-0.3-5.8c-0.1-1.9-0.2-3.9-0.3-5.9l-0.3-5.3l-0.2-4c0-0.6-0.1-1.3-0.1-2l8.8-0.8l1,20l0.4,7.4l8.2-0.1l8.8-0.1
			l8.2-0.1l-0.4-8c-0.7-9.8-0.5-19.7-2-29.4l-0.8-5.4l-0.8-5.4c-1.7-9.7-2.4-19.5-5.3-29L728.5,279.5z"/>
		<circle class="st1" cx="368" cy="365.7" r="281.5"/>
	</g>
</g>
</svg>
