<?xml version="1.0" encoding="utf-8"?>
<!-- Generator: Adobe Illustrator 21.0.0, SVG Export Plug-In . SVG Version: 6.00 Build 0)  -->
<svg version="1.1" id="Layer_1" xmlns="http://www.w3.org/2000/svg" xmlns:xlink="http://www.w3.org/1999/xlink" x="0px" y="0px"
	 viewBox="0 0 500 131.2" style="enable-background:new 0 0 500 131.2;" xml:space="preserve">
<style type="text/css">
	.st0{fill:none;stroke:#FFFFFF;stroke-width:2;stroke-miterlimit:10;}
</style>
<title>Asset 6</title>
<g id="Layer_2">
	<g id="Layer_1-2">
		<path class="st0" d="M486,52.7H167.8c-7.1,0-12.9-5.8-12.9-12.9s5.8-12.9,12.9-12.9h81.8c7.1,0,12.9-5.8,12.9-12.9
			S256.7,1,249.6,1H13.9C6.8,1,1,6.8,1,13.9s5.8,12.9,12.9,12.9H65c7.1,0,12.9,5.8,12.9,12.9S72.1,52.7,65,52.7H50.3
			c-7.1,0-12.9,5.8-12.9,12.9s5.8,12.9,12.9,12.9h148.6c7.1-0.2,13.1,5.4,13.3,12.6s-5.4,13.1-12.6,13.3c-0.2,0-0.5,0-0.7,0H29.8
			c-7.1,0-12.9,5.8-12.9,12.9c0,7.1,5.8,12.9,12.9,12.9h328c7.1,0,12.9-5.8,12.9-12.9c0-7.1-5.8-12.9-12.9-12.9H314
			c-7.1-0.2-12.8-6.1-12.6-13.3c0.2-6.9,5.7-12.4,12.6-12.6h172c7.1,0,12.9-5.8,12.9-12.9C498.9,58.5,493.1,52.7,486,52.7z"/>
	</g>
</g>
</svg>
