<?xml version="1.0" encoding="utf-8"?>
<!-- Generator: Adobe Illustrator 21.0.0, SVG Export Plug-In . SVG Version: 6.00 Build 0)  -->
<svg version="1.1" id="Layer_1" xmlns="http://www.w3.org/2000/svg" xmlns:xlink="http://www.w3.org/1999/xlink" x="0px" y="0px"
	 viewBox="0 0 506 147.8" style="enable-background:new 0 0 506 147.8;" xml:space="preserve">
<style type="text/css">
	.st0{fill:none;stroke:#FFFFFF;stroke-width:2;stroke-miterlimit:10;}
</style>
<title>Asset 5</title>
<g id="Layer_2">
	<g id="Layer_1-2">
		<path class="st0" d="M293.3,30.2h47.2c8.1,0,14.6-6.5,14.6-14.6S348.6,1,340.5,1c0,0,0,0,0,0h-47.2c-8.1,0-14.6,6.5-14.6,14.6
			C278.8,23.6,285.3,30.2,293.3,30.2z"/>
		<path class="st0" d="M490.4,117.7H354.2c-8.1,0-14.6-6.5-14.6-14.6s6.5-14.6,14.6-14.6h89.9c8.1,0,14.6-6.5,14.6-14.6
			s-6.5-14.6-14.6-14.6l0,0H189.2c-8.1,0-14.6-6.5-14.6-14.6c0-8.1,6.5-14.6,14.6-14.6c0,0,0,0,0,0h47.2c8.1,0,14.6-6.5,14.6-14.6
			C251,7.5,244.4,1,236.4,1H15.6C7.5,1,1,7.5,1,15.6s6.5,14.6,14.6,14.6c0,0,0,0,0,0h57.6c8.1,0,14.6,6.5,14.6,14.6
			c0,8.1-6.5,14.6-14.6,14.6H56.7c-8.1,0-14.6,6.5-14.6,14.6s6.5,14.6,14.6,14.6h167.7c8.1,0,14.6,6.5,14.6,14.6
			s-6.5,14.6-14.6,14.6h-17.2c-8.1,0-14.6,6.5-14.6,14.6c0,8.1,6.5,14.6,14.6,14.6h283.3c8.1,0,14.6-6.5,14.6-14.6
			C505,124.2,498.5,117.7,490.4,117.7z"/>
	</g>
</g>
</svg>
